<?xml version="1.0" standalone="no"?><!DOCTYPE svg PUBLIC "-//W3C//DTD SVG 1.1//EN" "http://www.w3.org/Graphics/SVG/1.1/DTD/svg11.dtd"><svg t="1541382753083" class="icon" style="" viewBox="0 0 1024 1024" version="1.1" xmlns="http://www.w3.org/2000/svg" p-id="2872" xmlns:xlink="http://www.w3.org/1999/xlink" width="16" height="16"><defs><style type="text/css"></style></defs><path d="M914.9 158.4H183.5c-15.2 0-27.6-12.4-27.6-27.6v-4.1c0-15.2 12.4-27.6 27.6-27.6h731.4c15.2 0 27.6 12.4 27.6 27.6v4.1c0.1 15.2-12.3 27.6-27.6 27.6zM914.9 819.9H183.5c-15.2 0-27.6-12.4-27.6-27.6v-4.1c0-15.2 12.4-27.6 27.6-27.6h731.4c15.2 0 27.6 12.4 27.6 27.6v4.1c0.1 15.2-12.3 27.6-27.6 27.6zM574.7 489.2H176.6c-11.4 0-20.7-9.3-20.7-20.7v-18.1c0-11.4 9.3-20.7 20.7-20.7h398.1c11.4 0 20.7 9.3 20.7 20.7v18.1c0 11.4-9.3 20.7-20.7 20.7z" fill="#33A3F4" p-id="2873"></path></svg>